<mxfile host="app.diagrams.net" modified="2023-08-28T15:53:34.159Z" agent="Mozilla/5.0 (Windows NT 10.0; Win64; x64) AppleWebKit/537.36 (KHTML, like Gecko) Chrome/116.0.0.0 Safari/537.36" etag="5FjZ7CQat9Ajh8A516vn" version="21.6.9" type="github" pages="2">
  <diagram name="userroles" id="rasDofUEgk2x8Y9_TUdu">
    <mxGraphModel dx="1434" dy="758" grid="1" gridSize="10" guides="1" tooltips="1" connect="1" arrows="1" fold="1" page="1" pageScale="1" pageWidth="850" pageHeight="1100" math="0" shadow="0">
      <root>
        <mxCell id="0" />
        <mxCell id="1" parent="0" />
        <mxCell id="NcEJU8F5eQ85N1rwH00z-1" value="ur_role" style="swimlane;childLayout=stackLayout;horizontal=1;startSize=30;horizontalStack=0;rounded=1;fontSize=14;fontStyle=0;strokeWidth=2;resizeParent=0;resizeLast=1;shadow=0;dashed=0;align=center;" parent="1" vertex="1">
          <mxGeometry x="40" y="40" width="200" height="110" as="geometry" />
        </mxCell>
        <mxCell id="NcEJU8F5eQ85N1rwH00z-2" value="+ id: long, PK&#xa;+ role: text, UNIQUE, NOT NULL&#xa;+ label: text" style="align=left;strokeColor=none;fillColor=none;spacingLeft=4;fontSize=12;verticalAlign=top;resizable=0;rotatable=0;part=1;" parent="NcEJU8F5eQ85N1rwH00z-1" vertex="1">
          <mxGeometry y="30" width="200" height="80" as="geometry" />
        </mxCell>
        <mxCell id="NcEJU8F5eQ85N1rwH00z-3" value="ur_privilege" style="swimlane;childLayout=stackLayout;horizontal=1;startSize=30;horizontalStack=0;rounded=1;fontSize=14;fontStyle=0;strokeWidth=2;resizeParent=0;resizeLast=1;shadow=0;dashed=0;align=center;" parent="1" vertex="1">
          <mxGeometry x="590" y="40" width="220" height="110" as="geometry" />
        </mxCell>
        <mxCell id="NcEJU8F5eQ85N1rwH00z-4" value="+ id: long, PK&#xa;+ privilege: text, UNIQUE, NOT NULL&#xa;+ label: text&#xa;+ description: varchar(5000)" style="align=left;strokeColor=none;fillColor=none;spacingLeft=4;fontSize=12;verticalAlign=top;resizable=0;rotatable=0;part=1;" parent="NcEJU8F5eQ85N1rwH00z-3" vertex="1">
          <mxGeometry y="30" width="220" height="80" as="geometry" />
        </mxCell>
        <mxCell id="NcEJU8F5eQ85N1rwH00z-5" value="ur_role_privilege" style="swimlane;childLayout=stackLayout;horizontal=1;startSize=30;horizontalStack=0;rounded=1;fontSize=14;fontStyle=0;strokeWidth=2;resizeParent=0;resizeLast=1;shadow=0;dashed=0;align=center;" parent="1" vertex="1">
          <mxGeometry x="280" y="40" width="240" height="110" as="geometry" />
        </mxCell>
        <mxCell id="NcEJU8F5eQ85N1rwH00z-6" value="+ id: long, PK&#xa;+ ur_role_id: long, FK, NOT NULL&#xa;+ ur_privilege_id: long, FK, NOT NULL" style="align=left;strokeColor=none;fillColor=none;spacingLeft=4;fontSize=12;verticalAlign=top;resizable=0;rotatable=0;part=1;" parent="NcEJU8F5eQ85N1rwH00z-5" vertex="1">
          <mxGeometry y="30" width="240" height="80" as="geometry" />
        </mxCell>
        <mxCell id="NcEJU8F5eQ85N1rwH00z-7" style="edgeStyle=orthogonalEdgeStyle;rounded=0;orthogonalLoop=1;jettySize=auto;html=1;entryX=0;entryY=0.5;entryDx=0;entryDy=0;endArrow=none;endFill=0;startArrow=ERmany;startFill=0;" parent="1" source="NcEJU8F5eQ85N1rwH00z-6" target="NcEJU8F5eQ85N1rwH00z-4" edge="1">
          <mxGeometry relative="1" as="geometry" />
        </mxCell>
        <mxCell id="NcEJU8F5eQ85N1rwH00z-8" style="edgeStyle=orthogonalEdgeStyle;rounded=0;orthogonalLoop=1;jettySize=auto;html=1;entryX=1;entryY=0.5;entryDx=0;entryDy=0;startArrow=ERmany;startFill=0;endArrow=none;endFill=0;" parent="1" source="NcEJU8F5eQ85N1rwH00z-6" target="NcEJU8F5eQ85N1rwH00z-2" edge="1">
          <mxGeometry relative="1" as="geometry" />
        </mxCell>
        <mxCell id="NcEJU8F5eQ85N1rwH00z-9" value="ur_user" style="swimlane;childLayout=stackLayout;horizontal=1;startSize=30;horizontalStack=0;rounded=1;fontSize=14;fontStyle=0;strokeWidth=2;resizeParent=0;resizeLast=1;shadow=0;dashed=0;align=center;" parent="1" vertex="1">
          <mxGeometry x="40" y="370" width="240" height="210" as="geometry" />
        </mxCell>
        <mxCell id="NcEJU8F5eQ85N1rwH00z-10" value="+ id: long, PK&#xa;+ date_created: timestamp&#xa;+ date_modified: timestamp&#xa;+ date_deleted: timestamp&#xa;+ email: text, UNIQUE, NOT NULL&#xa;+ password: text&#xa;+ enabled: bool, NOT NULL&#xa;+ ur_person_id: long, FK&#xa;+ confirmation_ur_token_id: long, FK&#xa;+ password_reset_ur_token_id: long, FK&#xa;+ balance: double" style="align=left;strokeColor=none;fillColor=none;spacingLeft=4;fontSize=12;verticalAlign=top;resizable=0;rotatable=0;part=1;" parent="NcEJU8F5eQ85N1rwH00z-9" vertex="1">
          <mxGeometry y="30" width="240" height="180" as="geometry" />
        </mxCell>
        <mxCell id="NcEJU8F5eQ85N1rwH00z-11" style="edgeStyle=orthogonalEdgeStyle;rounded=0;orthogonalLoop=1;jettySize=auto;html=1;entryX=0.5;entryY=1;entryDx=0;entryDy=0;startArrow=ERmany;startFill=0;endArrow=none;endFill=0;" parent="1" source="NcEJU8F5eQ85N1rwH00z-13" target="NcEJU8F5eQ85N1rwH00z-2" edge="1">
          <mxGeometry relative="1" as="geometry" />
        </mxCell>
        <mxCell id="NcEJU8F5eQ85N1rwH00z-12" style="edgeStyle=orthogonalEdgeStyle;rounded=0;orthogonalLoop=1;jettySize=auto;html=1;entryX=0.5;entryY=0;entryDx=0;entryDy=0;startArrow=ERmany;startFill=0;endArrow=none;endFill=0;" parent="1" source="NcEJU8F5eQ85N1rwH00z-13" target="NcEJU8F5eQ85N1rwH00z-9" edge="1">
          <mxGeometry relative="1" as="geometry" />
        </mxCell>
        <mxCell id="NcEJU8F5eQ85N1rwH00z-13" value="ur_user_role" style="swimlane;childLayout=stackLayout;horizontal=1;startSize=30;horizontalStack=0;rounded=1;fontSize=14;fontStyle=0;strokeWidth=2;resizeParent=0;resizeLast=1;shadow=0;dashed=0;align=center;" parent="1" vertex="1">
          <mxGeometry x="40" y="200" width="200" height="120" as="geometry" />
        </mxCell>
        <mxCell id="NcEJU8F5eQ85N1rwH00z-14" value="+ id: long, PK&#xa;+ ur_user_id: long, FK, NOT NULL&#xa;+ ur_role_id: long, FK, NOT NULL" style="align=left;strokeColor=none;fillColor=none;spacingLeft=4;fontSize=12;verticalAlign=top;resizable=0;rotatable=0;part=1;" parent="NcEJU8F5eQ85N1rwH00z-13" vertex="1">
          <mxGeometry y="30" width="200" height="90" as="geometry" />
        </mxCell>
        <mxCell id="NcEJU8F5eQ85N1rwH00z-15" style="edgeStyle=orthogonalEdgeStyle;rounded=0;orthogonalLoop=1;jettySize=auto;html=1;entryX=1;entryY=0.25;entryDx=0;entryDy=0;startArrow=none;startFill=0;endArrow=none;endFill=0;" parent="1" source="NcEJU8F5eQ85N1rwH00z-16" target="NcEJU8F5eQ85N1rwH00z-10" edge="1">
          <mxGeometry relative="1" as="geometry" />
        </mxCell>
        <mxCell id="NcEJU8F5eQ85N1rwH00z-16" value="ur_token" style="swimlane;childLayout=stackLayout;horizontal=1;startSize=30;horizontalStack=0;rounded=1;fontSize=14;fontStyle=0;strokeWidth=2;resizeParent=0;resizeLast=1;shadow=0;dashed=0;align=center;" parent="1" vertex="1">
          <mxGeometry x="360" y="400" width="200" height="120" as="geometry" />
        </mxCell>
        <mxCell id="NcEJU8F5eQ85N1rwH00z-17" value="+ id: long, PK&#xa;+ token: text, UNIQUE, NOT NULL&#xa;+ date_created: timestamp&#xa;+ date_expired: timestamp" style="align=left;strokeColor=none;fillColor=none;spacingLeft=4;fontSize=12;verticalAlign=top;resizable=0;rotatable=0;part=1;" parent="NcEJU8F5eQ85N1rwH00z-16" vertex="1">
          <mxGeometry y="30" width="200" height="90" as="geometry" />
        </mxCell>
        <mxCell id="NcEJU8F5eQ85N1rwH00z-18" style="edgeStyle=orthogonalEdgeStyle;rounded=0;orthogonalLoop=1;jettySize=auto;html=1;entryX=0;entryY=0.5;entryDx=0;entryDy=0;startArrow=none;startFill=0;endArrow=none;endFill=0;" parent="1" source="NcEJU8F5eQ85N1rwH00z-10" target="NcEJU8F5eQ85N1rwH00z-17" edge="1">
          <mxGeometry relative="1" as="geometry" />
        </mxCell>
        <mxCell id="NcEJU8F5eQ85N1rwH00z-19" value="ur_person" style="swimlane;childLayout=stackLayout;horizontal=1;startSize=30;horizontalStack=0;rounded=1;fontSize=14;fontStyle=0;strokeWidth=2;resizeParent=0;resizeLast=1;shadow=0;dashed=0;align=center;" parent="1" vertex="1">
          <mxGeometry x="40" y="640" width="240" height="140" as="geometry" />
        </mxCell>
        <mxCell id="NcEJU8F5eQ85N1rwH00z-20" value="+ id: long, PK&#xa;+ date_created: timestamp&#xa;+ date_modified: timestamp&#xa;+ first_name: text&#xa;+ last_name: text&#xa;+ phone_number: text" style="align=left;strokeColor=none;fillColor=none;spacingLeft=4;fontSize=12;verticalAlign=top;resizable=0;rotatable=0;part=1;" parent="NcEJU8F5eQ85N1rwH00z-19" vertex="1">
          <mxGeometry y="30" width="240" height="110" as="geometry" />
        </mxCell>
        <mxCell id="NcEJU8F5eQ85N1rwH00z-21" style="edgeStyle=orthogonalEdgeStyle;rounded=0;orthogonalLoop=1;jettySize=auto;html=1;entryX=0.5;entryY=0;entryDx=0;entryDy=0;startArrow=ERmany;startFill=0;endArrow=none;endFill=0;" parent="1" source="NcEJU8F5eQ85N1rwH00z-10" target="NcEJU8F5eQ85N1rwH00z-19" edge="1">
          <mxGeometry relative="1" as="geometry" />
        </mxCell>
        <mxCell id="NcEJU8F5eQ85N1rwH00z-22" value="ur_login_session" style="swimlane;childLayout=stackLayout;horizontal=1;startSize=30;horizontalStack=0;rounded=1;fontSize=14;fontStyle=0;strokeWidth=2;resizeParent=0;resizeLast=1;shadow=0;dashed=0;align=center;" parent="1" vertex="1">
          <mxGeometry x="360" y="640" width="200" height="140" as="geometry" />
        </mxCell>
        <mxCell id="NcEJU8F5eQ85N1rwH00z-23" value="+ id: long, PK&#xa;+ login_date: timestamp&#xa;+ logout_date: timestamp&#xa;+ ur_user_id: long, FK" style="align=left;strokeColor=none;fillColor=none;spacingLeft=4;fontSize=12;verticalAlign=top;resizable=0;rotatable=0;part=1;" parent="NcEJU8F5eQ85N1rwH00z-22" vertex="1">
          <mxGeometry y="30" width="200" height="110" as="geometry" />
        </mxCell>
        <mxCell id="NcEJU8F5eQ85N1rwH00z-24" style="edgeStyle=orthogonalEdgeStyle;rounded=0;orthogonalLoop=1;jettySize=auto;html=1;exitX=1;exitY=0.75;exitDx=0;exitDy=0;endArrow=ERmany;endFill=0;" parent="1" source="NcEJU8F5eQ85N1rwH00z-10" target="NcEJU8F5eQ85N1rwH00z-22" edge="1">
          <mxGeometry relative="1" as="geometry" />
        </mxCell>
      </root>
    </mxGraphModel>
  </diagram>
  <diagram id="2zlOISZjpgZvn4jpV_Fw" name="metamodels">
    <mxGraphModel dx="2284" dy="758" grid="1" gridSize="10" guides="1" tooltips="1" connect="1" arrows="1" fold="1" page="1" pageScale="1" pageWidth="850" pageHeight="1100" math="0" shadow="0">
      <root>
        <mxCell id="0" />
        <mxCell id="1" parent="0" />
        <mxCell id="XaTmom0QrmOVDEkwlWpY-1" value="mm_products" style="swimlane;childLayout=stackLayout;horizontal=1;startSize=30;horizontalStack=0;rounded=1;fontSize=14;fontStyle=0;strokeWidth=2;resizeParent=0;resizeLast=1;shadow=0;dashed=0;align=center;" parent="1" vertex="1">
          <mxGeometry x="80" y="340" width="240" height="180" as="geometry" />
        </mxCell>
        <mxCell id="XaTmom0QrmOVDEkwlWpY-2" value="+ id: long, PK&#xa;+ date_created: timestamp&#xa;+ date_modified: timestamp&#xa;+ date_deleted: timestamp&#xa;+ quantity: integer&#xa;+ price: double&#xa;+ image: file&#xa;+ title: varchar(200)&#xa;+ description: varchar(200)" style="align=left;strokeColor=none;fillColor=none;spacingLeft=4;fontSize=12;verticalAlign=top;resizable=0;rotatable=0;part=1;" parent="XaTmom0QrmOVDEkwlWpY-1" vertex="1">
          <mxGeometry y="30" width="240" height="150" as="geometry" />
        </mxCell>
        <mxCell id="PuRM0Y142JhNYR5v5XaW-3" value="Topic:&lt;br&gt;- History&lt;br&gt;- Art&lt;br&gt;- Computer Science&lt;br&gt;- Math&lt;br&gt;- Geography" style="shape=note;size=20;whiteSpace=wrap;html=1;fillColor=#e1d5e7;strokeColor=#9673a6;" parent="1" vertex="1">
          <mxGeometry x="800" y="170" width="190" height="110" as="geometry" />
        </mxCell>
        <mxCell id="PuRM0Y142JhNYR5v5XaW-4" value="Difficulty:&lt;br&gt;- Easy&lt;br&gt;- Medium&lt;br&gt;- Hard" style="shape=note;size=20;whiteSpace=wrap;html=1;fillColor=#e1d5e7;strokeColor=#9673a6;" parent="1" vertex="1">
          <mxGeometry x="800" y="340" width="190" height="110" as="geometry" />
        </mxCell>
        <mxCell id="PuRM0Y142JhNYR5v5XaW-7" value="mm_quiz_questions" style="swimlane;childLayout=stackLayout;horizontal=1;startSize=30;horizontalStack=0;rounded=1;fontSize=14;fontStyle=0;strokeWidth=2;resizeParent=0;resizeLast=1;shadow=0;dashed=0;align=center;" parent="1" vertex="1">
          <mxGeometry x="480" y="240" width="240" height="140" as="geometry" />
        </mxCell>
        <mxCell id="PuRM0Y142JhNYR5v5XaW-8" value="+ id: long, PK&#xa;+ topic: varchar(200), enum&#xa;+ difficulty: varchar(200), enum&#xa;+ reward: integer&#xa;+ question: varchar(200)&#xa;+ correct_answer_id: long, FK " style="align=left;strokeColor=none;fillColor=none;spacingLeft=4;fontSize=12;verticalAlign=top;resizable=0;rotatable=0;part=1;" parent="PuRM0Y142JhNYR5v5XaW-7" vertex="1">
          <mxGeometry y="30" width="240" height="110" as="geometry" />
        </mxCell>
        <mxCell id="PuRM0Y142JhNYR5v5XaW-9" style="edgeStyle=orthogonalEdgeStyle;rounded=0;orthogonalLoop=1;jettySize=auto;html=1;exitX=1;exitY=0.25;exitDx=0;exitDy=0;entryX=0;entryY=0.5;entryDx=0;entryDy=0;entryPerimeter=0;endArrow=none;endFill=0;" parent="1" source="PuRM0Y142JhNYR5v5XaW-8" target="PuRM0Y142JhNYR5v5XaW-3" edge="1">
          <mxGeometry relative="1" as="geometry" />
        </mxCell>
        <mxCell id="PuRM0Y142JhNYR5v5XaW-10" style="edgeStyle=orthogonalEdgeStyle;rounded=0;orthogonalLoop=1;jettySize=auto;html=1;exitX=1;exitY=0.5;exitDx=0;exitDy=0;entryX=0;entryY=0.5;entryDx=0;entryDy=0;entryPerimeter=0;endArrow=none;endFill=0;" parent="1" source="PuRM0Y142JhNYR5v5XaW-8" target="PuRM0Y142JhNYR5v5XaW-4" edge="1">
          <mxGeometry relative="1" as="geometry" />
        </mxCell>
        <mxCell id="PuRM0Y142JhNYR5v5XaW-11" value="mm_quiz_answers" style="swimlane;childLayout=stackLayout;horizontal=1;startSize=30;horizontalStack=0;rounded=1;fontSize=14;fontStyle=0;strokeWidth=2;resizeParent=0;resizeLast=1;shadow=0;dashed=0;align=center;" parent="1" vertex="1">
          <mxGeometry x="480" y="480" width="240" height="100" as="geometry" />
        </mxCell>
        <mxCell id="PuRM0Y142JhNYR5v5XaW-12" value="+ id: long, PK&#xa;+ mm_quiz_question_id: long, FK&#xa;+ answer_desciption: varchar(200)" style="align=left;strokeColor=none;fillColor=none;spacingLeft=4;fontSize=12;verticalAlign=top;resizable=0;rotatable=0;part=1;" parent="PuRM0Y142JhNYR5v5XaW-11" vertex="1">
          <mxGeometry y="30" width="240" height="70" as="geometry" />
        </mxCell>
        <mxCell id="PuRM0Y142JhNYR5v5XaW-13" style="edgeStyle=orthogonalEdgeStyle;rounded=0;orthogonalLoop=1;jettySize=auto;html=1;exitX=0.5;exitY=1;exitDx=0;exitDy=0;entryX=0.5;entryY=0;entryDx=0;entryDy=0;endArrow=ERmany;endFill=0;" parent="1" source="PuRM0Y142JhNYR5v5XaW-8" target="PuRM0Y142JhNYR5v5XaW-11" edge="1">
          <mxGeometry relative="1" as="geometry" />
        </mxCell>
        <mxCell id="PuRM0Y142JhNYR5v5XaW-16" style="edgeStyle=orthogonalEdgeStyle;rounded=0;orthogonalLoop=1;jettySize=auto;html=1;exitX=0.5;exitY=0;exitDx=0;exitDy=0;entryX=0.5;entryY=1;entryDx=0;entryDy=0;endArrow=ERmany;endFill=0;" parent="1" source="PuRM0Y142JhNYR5v5XaW-14" target="XaTmom0QrmOVDEkwlWpY-1" edge="1">
          <mxGeometry relative="1" as="geometry" />
        </mxCell>
        <mxCell id="PuRM0Y142JhNYR5v5XaW-14" value="mm_shopping_cart" style="swimlane;childLayout=stackLayout;horizontal=1;startSize=30;horizontalStack=0;rounded=1;fontSize=14;fontStyle=0;strokeWidth=2;resizeParent=0;resizeLast=1;shadow=0;dashed=0;align=center;" parent="1" vertex="1">
          <mxGeometry x="80" y="640" width="240" height="140" as="geometry" />
        </mxCell>
        <mxCell id="PuRM0Y142JhNYR5v5XaW-15" value="+ id: long, PK&#xa;+ date_created: timestamp&#xa;+ date_modified: timestamp&#xa;+ date_deleted: timestamp&#xa;+ total_price: double&#xa;+ ur_user_id: long, FK" style="align=left;strokeColor=none;fillColor=none;spacingLeft=4;fontSize=12;verticalAlign=top;resizable=0;rotatable=0;part=1;" parent="PuRM0Y142JhNYR5v5XaW-14" vertex="1">
          <mxGeometry y="30" width="240" height="110" as="geometry" />
        </mxCell>
        <mxCell id="PuRM0Y142JhNYR5v5XaW-17" value="mm_daily_check_in" style="swimlane;childLayout=stackLayout;horizontal=1;startSize=30;horizontalStack=0;rounded=1;fontSize=14;fontStyle=0;strokeWidth=2;resizeParent=0;resizeLast=1;shadow=0;dashed=0;align=center;" parent="1" vertex="1">
          <mxGeometry x="1200" y="630" width="240" height="120" as="geometry" />
        </mxCell>
        <mxCell id="PuRM0Y142JhNYR5v5XaW-18" value="+ id: long, PK&#xa;+ mm_daily_check_ins: long, FK&#xa;+ daily_reward: double&#xa;+ claimed: boolean" style="align=left;strokeColor=none;fillColor=none;spacingLeft=4;fontSize=12;verticalAlign=top;resizable=0;rotatable=0;part=1;" parent="PuRM0Y142JhNYR5v5XaW-17" vertex="1">
          <mxGeometry y="30" width="240" height="90" as="geometry" />
        </mxCell>
        <mxCell id="PuRM0Y142JhNYR5v5XaW-20" value="mm_daily_check_ins" style="swimlane;childLayout=stackLayout;horizontal=1;startSize=30;horizontalStack=0;rounded=1;fontSize=14;fontStyle=0;strokeWidth=2;resizeParent=0;resizeLast=1;shadow=0;dashed=0;align=center;" parent="1" vertex="1">
          <mxGeometry x="850" y="640" width="240" height="80" as="geometry" />
        </mxCell>
        <mxCell id="PuRM0Y142JhNYR5v5XaW-21" value="+ id: long, PK&#xa;+ ur_user_id: long, FK" style="align=left;strokeColor=none;fillColor=none;spacingLeft=4;fontSize=12;verticalAlign=top;resizable=0;rotatable=0;part=1;" parent="PuRM0Y142JhNYR5v5XaW-20" vertex="1">
          <mxGeometry y="30" width="240" height="50" as="geometry" />
        </mxCell>
        <mxCell id="PuRM0Y142JhNYR5v5XaW-22" style="edgeStyle=orthogonalEdgeStyle;rounded=0;orthogonalLoop=1;jettySize=auto;html=1;exitX=1;exitY=0.25;exitDx=0;exitDy=0;entryX=0;entryY=0.25;entryDx=0;entryDy=0;endArrow=ERmany;endFill=0;" parent="1" source="PuRM0Y142JhNYR5v5XaW-21" target="PuRM0Y142JhNYR5v5XaW-18" edge="1">
          <mxGeometry relative="1" as="geometry" />
        </mxCell>
        <mxCell id="PuRM0Y142JhNYR5v5XaW-23" value="mm_order" style="swimlane;childLayout=stackLayout;horizontal=1;startSize=30;horizontalStack=0;rounded=1;fontSize=14;fontStyle=0;strokeWidth=2;resizeParent=0;resizeLast=1;shadow=0;dashed=0;align=center;" parent="1" vertex="1">
          <mxGeometry x="80" y="70" width="240" height="160" as="geometry" />
        </mxCell>
        <mxCell id="PuRM0Y142JhNYR5v5XaW-24" value="+ id: long, PK&#xa;+ date_created: timestamp&#xa;+ total_price: double&#xa;+ order_id: varchar(200)&#xa;+ tracking_number: varchar(200)&#xa;+ ur_user_id: long, FK&#xa;+ descirption: varchar(500)&#xa;+ order_status: varchar(200), enum" style="align=left;strokeColor=none;fillColor=none;spacingLeft=4;fontSize=12;verticalAlign=top;resizable=0;rotatable=0;part=1;" parent="PuRM0Y142JhNYR5v5XaW-23" vertex="1">
          <mxGeometry y="30" width="240" height="130" as="geometry" />
        </mxCell>
        <mxCell id="PuRM0Y142JhNYR5v5XaW-25" style="edgeStyle=orthogonalEdgeStyle;rounded=0;orthogonalLoop=1;jettySize=auto;html=1;exitX=0.5;exitY=1;exitDx=0;exitDy=0;entryX=0.5;entryY=0;entryDx=0;entryDy=0;endArrow=ERmany;endFill=0;" parent="1" source="PuRM0Y142JhNYR5v5XaW-24" target="XaTmom0QrmOVDEkwlWpY-1" edge="1">
          <mxGeometry relative="1" as="geometry" />
        </mxCell>
        <mxCell id="JPDeqmfGpwDBdp11WpZF-1" value="Order status:&lt;br&gt;- Received&lt;br&gt;- Shipped&lt;br&gt;- In Transition&lt;br&gt;- Delivered&lt;br&gt;- Cancelled" style="shape=note;size=20;whiteSpace=wrap;html=1;fillColor=#e1d5e7;strokeColor=#9673a6;" vertex="1" parent="1">
          <mxGeometry x="-190" y="40" width="190" height="110" as="geometry" />
        </mxCell>
        <mxCell id="JPDeqmfGpwDBdp11WpZF-2" style="edgeStyle=orthogonalEdgeStyle;rounded=0;orthogonalLoop=1;jettySize=auto;html=1;exitX=0;exitY=0.5;exitDx=0;exitDy=0;entryX=0;entryY=0;entryDx=190;entryDy=65;entryPerimeter=0;endArrow=none;endFill=0;" edge="1" parent="1" source="PuRM0Y142JhNYR5v5XaW-24" target="JPDeqmfGpwDBdp11WpZF-1">
          <mxGeometry relative="1" as="geometry" />
        </mxCell>
      </root>
    </mxGraphModel>
  </diagram>
</mxfile>
